<svg width="98" height="98" viewBox="0 0 98 98" fill="none" xmlns="http://www.w3.org/2000/svg">
<path d="M88.8125 0H9.1875C6.75082 0 4.41395 0.967966 2.69096 2.69096C0.967966 4.41395 0 6.75082 0 9.1875L0 45.9375C0 46.7497 0.322655 47.5287 0.896986 48.103C1.47132 48.6773 2.25027 49 3.0625 49H18.375V91.875C18.375 93.4995 19.0203 95.0574 20.169 96.206C21.3176 97.3547 22.8755 98 24.5 98H73.5C75.1245 98 76.6824 97.3547 77.831 96.206C78.9797 95.0574 79.625 93.4995 79.625 91.875V49H94.9375C95.7497 49 96.5287 48.6773 97.103 48.103C97.6773 47.5287 98 46.7497 98 45.9375V9.1875C98 6.75082 97.032 4.41395 95.309 2.69096C93.5861 0.967966 91.2492 0 88.8125 0V0ZM73.5 91.875H24.5V30.625H73.5V91.875ZM91.875 42.875H79.625V36.75H82.6875C83.4997 36.75 84.2787 36.4273 84.853 35.853C85.4273 35.2787 85.75 34.4997 85.75 33.6875V27.5625C85.75 26.7503 85.4273 25.9713 84.853 25.397C84.2787 24.8227 83.4997 24.5 82.6875 24.5H15.3125C14.5003 24.5 13.7213 24.8227 13.147 25.397C12.5727 25.9713 12.25 26.7503 12.25 27.5625V33.6875C12.25 34.4997 12.5727 35.2787 13.147 35.853C13.7213 36.4273 14.5003 36.75 15.3125 36.75H18.375V42.875H6.125V9.1875C6.125 8.37527 6.44766 7.59632 7.02199 7.02199C7.59632 6.44766 8.37527 6.125 9.1875 6.125H88.8125C89.6247 6.125 90.4037 6.44766 90.978 7.02199C91.5523 7.59632 91.875 8.37527 91.875 9.1875V42.875Z" fill="#2D314D"/>
<path d="M67.375 12.25H30.625V18.375H67.375V12.25Z" fill="#2D314D"/>
<path d="M49 73.5C52.6342 73.5 56.1869 72.4223 59.2086 70.4033C62.2304 68.3842 64.5855 65.5144 65.9763 62.1568C67.3671 58.7992 67.7309 55.1046 67.0219 51.5402C66.3129 47.9758 64.5629 44.7017 61.9931 42.1319C59.4233 39.5621 56.1492 37.8121 52.5848 37.1031C49.0204 36.3941 45.3258 36.758 41.9682 38.1487C38.6106 39.5395 35.7408 41.8947 33.7217 44.9164C31.7027 47.9382 30.625 51.4908 30.625 55.125C30.625 59.9984 32.5609 64.6721 36.0069 68.1181C39.4529 71.5641 44.1266 73.5 49 73.5ZM49 42.875C51.4228 42.875 53.7912 43.5935 55.8057 44.9395C57.8202 46.2856 59.3904 48.1987 60.3175 50.4371C61.2447 52.6755 61.4873 55.1386 61.0146 57.5149C60.542 59.8911 59.3752 62.0739 57.6621 63.7871C55.9489 65.5003 53.7661 66.667 51.3899 67.1396C49.0136 67.6123 46.5505 67.3697 44.3121 66.4425C42.0737 65.5154 40.1605 63.9452 38.8145 61.9307C37.4685 59.9162 36.75 57.5478 36.75 55.125C36.75 51.8761 38.0406 48.7603 40.3379 46.4629C42.6353 44.1656 45.7511 42.875 49 42.875Z" fill="#2D314D"/>
<path d="M52.0625 79.625H45.9375V85.75H52.0625V79.625Z" fill="#2D314D"/>
</svg>
