<svg width="45" height="79" viewBox="0 0 45 79" fill="none" xmlns="http://www.w3.org/2000/svg">
<path d="M39.1359 0.677979H5.94886C5.2227 0.677972 4.50365 0.820994 3.83276 1.09888C3.16187 1.37676 2.55229 1.78407 2.03882 2.29754C1.52534 2.81101 1.11803 3.42059 0.84014 4.09147C0.562249 4.76235 0.41922 5.4814 0.41922 6.20756V72.6006C0.419224 73.3267 0.562257 74.0458 0.840149 74.7166C1.11804 75.3875 1.52535 75.9971 2.03883 76.5106C2.5523 77.024 3.16188 77.4313 3.83277 77.7092C4.50365 77.9871 5.2227 78.1301 5.94886 78.1301H39.1359C39.8621 78.1301 40.5812 77.9871 41.252 77.7092C41.9229 77.4313 42.5325 77.024 43.046 76.5106C43.5594 75.9971 43.9668 75.3875 44.2447 74.7166C44.5225 74.0458 44.6656 73.3267 44.6656 72.6006V6.20756C44.6656 5.4814 44.5226 4.76235 44.2447 4.09147C43.9668 3.42059 43.5595 2.81101 43.046 2.29754C42.5325 1.78407 41.9229 1.37676 41.252 1.09888C40.5812 0.820994 39.8621 0.677972 39.1359 0.677979ZM26.4077 74.7118H18.668V72.6822H26.4077V74.7118ZM42.0881 67.8516C42.0881 68.3001 41.9099 68.7303 41.5928 69.0475C41.2756 69.3647 40.8454 69.5429 40.3969 69.5429H4.68792C4.23937 69.5429 3.80919 69.3647 3.49201 69.0475C3.17484 68.7303 2.99666 68.3001 2.99666 67.8516V10.8665C2.99666 10.418 3.17484 9.98777 3.49201 9.6706C3.80919 9.35343 4.23937 9.17524 4.68792 9.17524H40.3969C40.8454 9.17524 41.2756 9.35343 41.5928 9.6706C41.9099 9.98777 42.0881 10.418 42.0881 10.8665V67.8516Z" fill="#2D314D"/>
<path d="M17.7195 26.2562H17.0902C17.0153 26.2566 16.9411 26.2422 16.8719 26.2139C16.8026 26.1855 16.7397 26.1437 16.6866 26.091C16.6335 26.0382 16.5914 25.9755 16.5627 25.9064C16.534 25.8373 16.5192 25.7632 16.5192 25.6883C16.5192 25.6135 16.534 25.5394 16.5627 25.4703C16.5914 25.4012 16.6335 25.3385 16.6866 25.2857C16.7397 25.2329 16.8026 25.1912 16.8719 25.1628C16.9411 25.1344 17.0153 25.1201 17.0902 25.1205H19.9578V23.4862H18.2198V22.3127H16.5855V23.5468C16.0598 23.6703 15.5979 23.9828 15.2876 24.4247C14.9773 24.8666 14.8403 25.4071 14.9026 25.9435C14.965 26.4799 15.2223 26.9746 15.6256 27.3336C16.029 27.6926 16.5502 27.8908 17.0902 27.8905H17.7195C17.9148 27.8905 18.102 27.968 18.2401 28.1061C18.3781 28.2442 18.4557 28.4314 18.4557 28.6267C18.4557 28.8219 18.3781 29.0091 18.2401 29.1472C18.102 29.2853 17.9148 29.3628 17.7195 29.3628H14.8475V30.9971H16.4193V32.1707H18.0535V30.9708C18.6471 30.8866 19.1867 30.5804 19.5635 30.1141C19.9403 29.6477 20.1263 29.0559 20.0839 28.4578C20.0415 27.8598 19.774 27.3 19.3352 26.8915C18.8964 26.4829 18.3191 26.2559 17.7195 26.2562Z" fill="#2D314D"/>
<path d="M27.5634 28.8178C27.261 28.8178 26.9622 28.8336 26.6671 28.8617C26.9664 26.9671 26.6778 25.0262 25.8401 23.3007C25.0024 21.5751 23.6559 20.1478 21.982 19.2111C20.3082 18.2744 18.3874 17.8734 16.4786 18.0619C14.5697 18.2505 12.7646 19.0197 11.3063 20.2658C9.84813 21.5119 8.80694 23.1751 8.32309 25.0312C7.83923 26.8873 7.93598 28.8471 8.60028 30.6466C9.26457 32.446 10.4645 33.9986 12.0384 35.095C13.6122 36.1915 15.4844 36.7791 17.4025 36.7788C17.7043 36.7788 18.0019 36.7615 18.2963 36.7331C17.9962 38.628 18.2843 40.5694 19.1216 42.2956C19.9588 44.0218 21.3052 45.4498 22.9791 46.3872C24.653 47.3246 26.5741 47.7263 28.4834 47.5383C30.3927 47.3502 32.1984 46.5813 33.6573 45.3353C35.1161 44.0893 36.1579 42.426 36.6423 40.5697C37.1267 38.7133 37.0304 36.753 36.3663 34.9531C35.7022 33.1531 34.5024 31.6 32.9284 30.5031C31.3544 29.4061 29.482 28.818 27.5634 28.818V28.8178ZM18.8543 34.7162C17.2626 35.0329 15.611 34.8229 14.1492 34.1178C12.6873 33.4127 11.4948 32.2509 10.7518 30.808C10.0087 29.3651 9.75562 27.7196 10.0307 26.1201C10.3057 24.5206 11.094 23.0541 12.2764 21.9423C13.4587 20.8305 14.9709 20.1338 16.5842 19.9575C18.1976 19.7813 19.8245 20.135 21.219 20.9653C22.6136 21.7956 23.6999 23.0573 24.3138 24.5596C24.9278 26.062 25.0359 27.7234 24.622 29.2927C23.3248 29.7244 22.1371 30.4331 21.1412 31.3696C20.1453 32.3061 19.3649 33.4481 18.8543 34.7162ZM30.7133 36.4372H29.0791V36.1422C29.079 35.8351 28.9659 35.5389 28.7613 35.31C28.5567 35.0811 28.2749 34.9356 27.9698 34.9012C27.6647 34.8668 27.3577 34.9461 27.1073 35.1238C26.8569 35.3014 26.6807 35.5651 26.6124 35.8644C26.9402 36.2845 27.1816 36.7654 27.3226 37.2792C27.3527 37.3869 27.3796 37.503 27.4029 37.6257H29.1671V39.2599H27.4189C27.3414 39.7461 27.2069 40.2215 27.0184 40.6763H30.3976V42.3106H25.6841C25.5387 42.3106 25.396 42.2718 25.2706 42.1982C25.1452 42.1247 25.0418 42.019 24.9708 41.8922C24.8999 41.7653 24.8641 41.6218 24.8671 41.4764C24.8702 41.3311 24.9119 41.1892 24.9881 41.0654C25.344 40.5111 25.6037 39.9007 25.7563 39.2599H24.2186V37.6257H25.7186C25.6242 37.2967 25.4516 36.9954 25.2155 36.7476C25.1298 36.672 25.0614 36.5788 25.0151 36.4742C24.9687 36.3697 24.9456 36.2564 24.9471 36.1421C24.9471 35.3775 25.2509 34.6441 25.7916 34.1035C26.3323 33.5628 27.0656 33.259 27.8303 33.259C28.5949 33.259 29.3282 33.5628 29.8689 34.1035C30.4096 34.6441 30.7134 35.3775 30.7134 36.1421L30.7133 36.4372Z" fill="#2D314D"/>
<path d="M13.9698 46.8133L12.6847 47.6116L13.7556 49.3356L17.0157 47.3105C17.2254 47.1803 17.3804 46.978 17.4517 46.7417C17.523 46.5054 17.5058 46.2512 17.4032 46.0267L15.8079 42.5362L13.962 43.3799L14.6532 44.8921C13.4346 44.5998 12.3288 43.9559 11.4732 43.0403C10.6177 42.1246 10.0501 40.9778 9.84108 39.7422C9.78699 39.4185 9.75759 39.0912 9.75313 38.7631H7.72379C7.74112 40.6034 8.3614 42.3873 9.48957 43.8413C10.6177 45.2954 12.1916 46.3395 13.9699 46.8135L13.9698 46.8133Z" fill="#2D314D"/>
<path d="M28.3579 22.7985L30.2038 21.9549L29.5126 20.4426C30.7313 20.7348 31.8371 21.3787 32.6927 22.2944C33.5483 23.21 34.1159 24.3569 34.325 25.5926C34.379 25.9162 34.4084 26.2436 34.413 26.5717H36.4423C36.425 24.7313 35.8047 22.9475 34.6765 21.4934C33.5483 20.0393 31.9745 18.9953 30.1962 18.5213L31.4812 17.723L30.4103 15.999L27.1501 18.0241C26.9405 18.1544 26.7855 18.3566 26.7142 18.5929C26.6428 18.8292 26.6601 19.0834 26.7627 19.3079L28.3579 22.7985Z" fill="#2D314D"/>
<path d="M25.7705 59.9092H8.53659V61.9387H25.7705V59.9092Z" fill="#2D314D"/>
<path d="M35.5286 55.5219H8.53659V57.5514H35.5286V55.5219Z" fill="#2D314D"/>
<path d="M35.5285 59.8982H28.6163V61.9277H35.5285V59.8982Z" fill="#2D314D"/>
</svg>
