<svg width="124" height="124" viewBox="0 0 124 124" fill="none" xmlns="http://www.w3.org/2000/svg">
<path d="M113.188 28.5312H107.281V10.8125C107.281 5.38466 102.865 0.96875 97.4375 0.96875H26.5625C21.1347 0.96875 16.7188 5.38466 16.7188 10.8125V28.5312H10.8125C5.38466 28.5312 0.96875 32.9472 0.96875 38.375V101.375C0.96875 106.803 5.38466 111.219 10.8125 111.219H36.4062V119.094H28.5312V123.031H95.4688V119.094H87.5938V111.219H113.188C118.615 111.219 123.031 106.803 123.031 101.375V38.375C123.031 32.9472 118.615 28.5312 113.188 28.5312ZM20.6562 10.8125C20.6562 7.55619 23.3062 4.90625 26.5625 4.90625H97.4375C100.694 4.90625 103.344 7.55619 103.344 10.8125V62C103.344 65.2563 100.694 67.9062 97.4375 67.9062H69.875V78.2107L52.7016 67.9062H26.5625C23.3062 67.9062 20.6562 65.2563 20.6562 62V10.8125ZM10.8125 32.4688H16.7188V62C16.7188 67.4278 21.1347 71.8438 26.5625 71.8438H51.6109L73.8125 85.1643V71.8438H97.4375C102.865 71.8438 107.281 67.4278 107.281 62V32.4688H113.188C116.444 32.4688 119.094 35.1187 119.094 38.375V91.5312H4.90625V38.375C4.90625 35.1187 7.55619 32.4688 10.8125 32.4688ZM83.6562 119.094H40.3438V111.219H83.6562V119.094ZM113.188 107.281H10.8125C7.55619 107.281 4.90625 104.631 4.90625 101.375V95.4688H119.094V101.375C119.094 104.631 116.444 107.281 113.188 107.281Z" fill="#2D314D"/>
<path d="M52.1562 99.4062H48.2188V103.344H52.1562V99.4062Z" fill="#2D314D"/>
<path d="M67.9062 99.4062H56.0938V103.344H67.9062V99.4062Z" fill="#2D314D"/>
<path d="M75.7812 99.4062H71.8438V103.344H75.7812V99.4062Z" fill="#2D314D"/>
<path d="M38.375 56.0938H48.2188V32.4688H44.2812V30.5C44.2812 20.7311 52.2291 12.7812 62 12.7812C71.7709 12.7812 79.7188 20.7311 79.7188 30.5V32.4688H75.7812V56.0938H79.7188V58.0625C79.7188 59.1473 78.8368 60.0312 77.75 60.0312H67.544C66.7289 57.7455 64.5633 56.0938 62 56.0938C58.7437 56.0938 56.0938 58.7437 56.0938 62C56.0938 65.2563 58.7437 67.9062 62 67.9062C64.5633 67.9062 66.7289 66.2545 67.544 63.9688H77.75C81.0063 63.9688 83.6562 61.3188 83.6562 58.0625V56.0938H85.625C91.0528 56.0938 95.4688 51.6778 95.4688 46.25V42.3125C95.4688 36.8847 91.0528 32.4688 85.625 32.4688H83.6562V30.5C83.6562 18.5595 73.9405 8.84375 62 8.84375C50.0595 8.84375 40.3438 18.5595 40.3438 30.5V32.4688H38.375C32.9472 32.4688 28.5312 36.8847 28.5312 42.3125V46.25C28.5312 51.6778 32.9472 56.0938 38.375 56.0938ZM62 63.9688C60.9132 63.9688 60.0312 63.0848 60.0312 62C60.0312 60.9152 60.9132 60.0312 62 60.0312C63.0868 60.0312 63.9688 60.9152 63.9688 62C63.9688 63.0848 63.0868 63.9688 62 63.9688ZM91.5312 42.3125V46.25C91.5312 48.8133 89.8795 50.9789 87.5938 51.794V40.3438H83.6562V52.1562H79.7188V36.4062H85.625C88.8813 36.4062 91.5312 39.0562 91.5312 42.3125ZM32.4688 42.3125C32.4688 39.0562 35.1187 36.4062 38.375 36.4062H44.2812V52.1562H40.3438V40.3438H36.4062V51.794C34.1205 50.9789 32.4688 48.8133 32.4688 46.25V42.3125Z" fill="#2D314D"/>
<path d="M40.3438 83.6562H36.4062V87.5938H40.3438V83.6562Z" fill="#2D314D"/>
<path d="M32.4688 83.6562H8.84375V87.5938H32.4688V83.6562Z" fill="#2D314D"/>
<path d="M40.3438 75.7812H8.84375V79.7188H40.3438V75.7812Z" fill="#2D314D"/>
<path d="M115.156 83.6562H111.219V87.5938H115.156V83.6562Z" fill="#2D314D"/>
<path d="M107.281 83.6562H83.6562V87.5938H107.281V83.6562Z" fill="#2D314D"/>
<path d="M115.156 75.7812H83.6562V79.7188H115.156V75.7812Z" fill="#2D314D"/>
</svg>
