<svg width="107" height="98" viewBox="0 0 107 98" fill="none" xmlns="http://www.w3.org/2000/svg">
<path d="M106.24 22.0845C105.738 21.7499 105.069 21.5826 104.567 21.9172L70.4362 34.1306L46.5113 25.4306C47.8498 22.0845 48.519 19.073 48.519 16.5634C48.519 12.0461 46.8459 8.03073 43.6671 4.8519C40.4883 1.67307 36.3056 0 31.9556 0C22.7537 0 15.3922 7.3615 15.3922 16.5634C15.3922 19.7422 16.5634 23.5903 18.5711 28.2749L1.17115 34.1306C0.501921 34.4652 0 35.1344 0 35.8037V96.0341C0 96.7034 0.334614 97.2053 0.836534 97.5399C1.17115 97.7072 1.50576 97.8745 1.84038 97.8745C2.00768 97.8745 2.3423 97.8745 2.5096 97.7072L36.6402 85.6611L69.767 97.8745C70.1016 98.0418 70.6035 98.0418 70.9381 97.8745L105.738 85.4938C106.407 85.1592 106.909 84.49 106.909 83.8207V23.5903C107.076 22.921 106.742 22.4191 106.24 22.0845ZM31.9556 3.34614C35.4691 3.34614 38.6479 4.68459 40.9902 7.1942C43.4998 9.53649 44.8382 12.8826 44.8382 16.2288C44.8382 18.5711 44.0017 21.7499 42.3286 25.4306C39.3171 32.1229 34.2979 39.1498 31.9556 42.3286C31.621 41.994 31.4537 41.6594 31.1191 41.1575C28.9441 38.146 25.4306 33.1268 22.921 27.9402C20.4114 23.0883 19.2403 19.073 19.2403 16.0615C19.073 9.20188 24.9287 3.34614 31.9556 3.34614ZM103.396 82.4823L70.4362 94.1938L37.3094 81.9804C37.1421 81.9804 36.8075 81.8131 36.6402 81.8131C36.4729 81.8131 36.1383 81.8131 35.971 81.9804L3.68075 93.5245V37.1421L20.4114 31.2864C20.4114 31.2864 20.4114 31.2864 20.4114 31.4537C20.5787 31.621 20.5787 31.7883 20.7461 31.9556C20.9134 32.2902 21.0807 32.6248 21.248 32.9595C21.4153 33.1268 21.4153 33.2941 21.5826 33.4614C21.7499 33.796 21.9172 34.1306 22.0845 34.4652C22.2518 34.6325 22.2518 34.7998 22.4191 34.9671C22.5864 35.3018 22.7537 35.6364 22.921 35.8037C23.0883 35.971 23.0883 36.1383 23.2557 36.3056C23.423 36.6402 23.5903 36.8075 23.7576 37.1421C23.9249 37.3094 23.9249 37.4767 24.0922 37.644C24.2595 37.9787 24.4268 38.146 24.5941 38.4806C24.7614 38.6479 24.7614 38.8152 24.9287 38.9825C25.096 39.3171 25.2633 39.4844 25.4306 39.819C25.598 39.9863 25.598 40.1536 25.7653 40.321C25.9326 40.6556 26.0999 40.8229 26.2672 41.1575C26.4345 41.3248 26.4345 41.4921 26.6018 41.4921C26.7691 41.8267 26.9364 41.994 27.1037 42.1613C27.1037 42.3286 27.271 42.3286 27.271 42.4959C27.4383 42.8306 27.6056 42.9979 27.7729 43.1652L27.9403 43.3325C28.1076 43.4998 28.2749 43.8344 28.4422 44.0017L28.6095 44.169C28.7768 44.3363 28.9441 44.6709 29.1114 44.8382C29.2787 45.0055 29.446 45.1729 29.6133 45.3402C29.9479 45.8421 30.2825 46.1767 30.2825 46.344C30.6172 46.8459 31.1191 47.0132 31.7883 47.0132C32.2902 47.0132 32.7921 46.6786 33.2941 46.344C33.2941 46.344 33.4614 46.1767 33.796 45.8421L33.9633 45.6748C34.1306 45.5075 34.1306 45.5075 34.2979 45.3402L34.4652 45.1729C34.6325 45.0055 34.6325 44.8382 34.7998 44.6709C34.7998 44.5036 34.9671 44.5036 34.9671 44.3363C35.1344 44.169 35.3018 44.0017 35.3018 43.8344C35.4691 43.6671 35.4691 43.4998 35.6364 43.3325C35.8037 43.1652 35.971 42.9979 36.1383 42.6632C36.3056 42.4959 36.3056 42.3286 36.4729 42.1613C36.6402 41.994 36.8075 41.8267 36.9748 41.4921C37.1421 41.3248 37.3094 41.1575 37.3094 40.9902C37.4767 40.8229 37.644 40.4883 37.8114 40.321C37.9787 40.1536 38.146 39.819 38.3133 39.6517C38.4806 39.4844 38.6479 39.1498 38.8152 38.9825C38.9825 38.8152 39.1498 38.4806 39.3171 38.3133C39.4844 37.9787 39.6517 37.8114 39.819 37.4767C39.9863 37.3094 40.1537 36.9748 40.321 36.8075C40.4883 36.4729 40.6556 36.3056 40.8229 35.971C40.9902 35.6364 41.1575 35.4691 41.3248 35.1344C41.4921 34.7998 41.6594 34.6325 41.8267 34.2979C41.994 33.9633 42.1613 33.796 42.3286 33.4614C42.4959 33.1268 42.6633 32.9595 42.8306 32.6248C42.9979 32.2902 43.1652 32.1229 43.3325 31.7883C43.4998 31.4537 43.6671 31.2864 43.8344 30.9518C44.0017 30.6172 44.169 30.4499 44.3363 30.1152C44.5036 29.7806 44.6709 29.446 44.8382 29.2787C45.0055 28.9441 45.1729 28.7768 45.1729 28.4422C45.1729 28.4422 45.1729 28.4422 45.1729 28.2749L69.9343 37.3094C70.2689 37.4767 70.7708 37.4767 71.1054 37.3094L103.396 25.7653V82.4823Z" fill="#2D314D"/>
<path d="M87.8361 66.2534C88.1707 66.4207 88.6726 66.4207 89.0072 66.4207C90.0111 66.4207 91.0149 66.086 91.8515 65.5841C93.0226 64.7476 93.8591 63.5764 94.1938 62.238C94.5284 60.8995 94.1938 59.3938 93.5245 58.2226C92.688 57.0515 91.5169 56.2149 90.1784 55.8803C87.3342 55.2111 84.3227 57.0515 83.6534 59.8957C83.3188 61.2341 83.6534 62.7399 84.3227 63.9111C85.3265 65.0822 86.4976 65.9187 87.8361 66.2534ZM87.3342 60.5649C87.5015 59.5611 88.5053 59.0592 89.3419 59.2265C89.8438 59.3938 90.1784 59.5611 90.3457 60.063C90.513 60.3976 90.6803 60.8995 90.513 61.4014C90.3457 61.9034 90.1784 62.238 89.6765 62.4053C89.3419 62.5726 88.8399 62.7399 88.338 62.5726C87.8361 62.4053 87.5015 62.238 87.3342 61.7361C87.3342 61.4015 87.3342 61.0668 87.3342 60.5649Z" fill="#2D314D"/>
<path d="M18.4038 60.7327L17.2326 61.4019L16.5634 60.2307C16.0615 59.3942 14.8903 59.0596 14.0538 59.7288C13.2172 60.2307 12.8826 61.4019 13.5519 62.2384L14.2211 63.4096L13.0499 64.0788C12.2134 64.5807 11.8788 65.7519 12.548 66.5884C12.7153 67.2576 13.3845 67.4249 13.8865 67.4249C14.2211 67.4249 14.5557 67.2576 14.8903 67.0903L16.0615 66.4211L16.7307 67.5922C17.0653 68.0942 17.7345 68.4288 18.2364 68.4288C18.5711 68.4288 18.9057 68.2615 19.2403 68.0942C20.0768 67.5922 20.4114 66.4211 19.7422 65.5846L19.073 64.4134L20.2441 63.7442C21.0807 63.2423 21.4153 62.0711 20.746 61.2346C20.4114 60.398 19.2403 60.2307 18.4038 60.7327Z" fill="#2D314D"/>
<path d="M35.6364 65.7516C33.4614 65.7516 30.6172 65.4169 28.7768 64.915C27.7729 64.7477 26.7691 65.4169 26.6018 66.4208C26.4345 67.4246 27.1037 68.4285 28.1076 68.5958C29.9479 68.9304 32.9595 69.4323 35.6364 69.4323C36.6402 69.4323 37.4767 68.5958 37.4767 67.5919C37.4767 66.5881 36.6402 65.7516 35.6364 65.7516Z" fill="#2D314D"/>
<path d="M49.3555 59.394C48.1844 61.067 46.8459 62.4055 45.1729 63.4093C44.6709 63.7439 44.0017 64.0785 43.3325 64.4132C42.3286 64.7478 41.994 65.9189 42.3286 66.9228C42.6632 67.592 43.3325 68.0939 44.0017 68.0939C44.169 68.0939 44.5036 68.0939 44.6709 67.9266C45.5075 67.592 46.1767 67.2574 46.8459 66.7555C48.8536 65.417 50.5267 63.9112 52.0324 61.9036C52.7017 61.067 52.5344 59.8959 51.6978 59.394C51.1959 58.3901 50.0248 58.5574 49.3555 59.394Z" fill="#2D314D"/>
<path d="M62.7401 47.3479C60.8997 47.3479 59.8959 47.8498 58.892 48.1844C56.5497 49.1883 54.5421 51.3633 54.0401 52.0325C53.3709 52.869 53.5382 54.0402 54.2074 54.7094C54.5421 55.044 55.044 55.2113 55.3786 55.2113C55.8805 55.2113 56.3824 55.044 56.717 54.5421C57.5536 53.5383 58.892 52.3671 60.2305 51.6979C61.2343 51.3633 61.5689 51.196 62.7401 51.0286C63.7439 51.0286 64.5805 50.1921 64.5805 49.1883C64.5805 48.1844 63.7439 47.3479 62.7401 47.3479Z" fill="#2D314D"/>
<path d="M69.5996 50.192C69.265 51.1958 69.5997 52.1997 70.6035 52.7016C72.4439 53.5381 75.1208 54.8766 77.1285 56.3823C77.4631 56.5497 77.7977 56.717 78.1323 56.717C78.8015 56.717 79.3034 56.3823 79.6381 55.8804C80.14 55.0439 79.9727 53.8727 79.1361 53.3708C76.7938 51.8651 74.1169 50.3593 71.9419 49.5228C71.1054 48.8535 70.1016 49.3555 69.5996 50.192Z" fill="#2D314D"/>
<path d="M31.9556 20.7463C35.1344 20.7463 37.644 18.2366 37.644 15.0578C37.644 11.879 35.1344 9.36938 31.9556 9.36938C28.7768 9.36938 26.2672 11.879 26.2672 15.0578C26.2672 18.2366 28.9441 20.7463 31.9556 20.7463ZM31.9556 13.0501C32.9594 13.0501 33.9633 13.8867 33.9633 15.0578C33.9633 16.0617 33.1268 17.0655 31.9556 17.0655C30.9518 17.0655 29.9479 16.229 29.9479 15.0578C30.1152 14.054 30.9518 13.0501 31.9556 13.0501Z" fill="#2D314D"/>
</svg>
