<svg width="74" height="66" viewBox="0 0 74 66" fill="none" xmlns="http://www.w3.org/2000/svg">
<path fill-rule="evenodd" clip-rule="evenodd" d="M74 57.95C74 62.3968 70.3997 66 65.9565 66H8.04348C3.60026 66 0 62.3968 0 57.95V11.2603C0 7.7038 2.88117 4.8203 6.43478 4.8203H38.8838L51.9126 0.0965831C52.7379 -0.204485 53.6516 0.222163 53.9524 1.04487L55.3246 4.8203H61.1304C64.684 4.8203 67.5652 7.7038 67.5652 11.2603V14.4803C71.1188 14.4803 74 17.3637 74 20.9202V57.95ZM6.43478 8.04028C4.65878 8.04028 3.21739 9.48284 3.21739 11.2603C3.21739 13.0377 4.65878 14.4803 6.43478 14.4803H11.9767H12.2808C12.3017 14.4722 12.3146 14.4545 12.3355 14.4464L30.0022 8.04028H6.43478ZM53.2124 8.33169L51.504 3.62408L48.203 4.8203H48.2078L39.3374 8.04028H39.3214L21.563 14.4803H55.4453L53.2124 8.33169ZM64.3478 11.2603C64.3478 9.48284 62.9064 8.04028 61.1304 8.04028H56.4926L58.8316 14.4803H64.3478V11.2603ZM67.5652 17.7002H6.43478C5.25722 17.7002 4.16652 17.3605 3.21739 16.8067V57.95C3.21739 60.6178 5.37948 62.78 8.04348 62.78H65.9565C68.6221 62.78 70.7826 60.6178 70.7826 57.95V46.6801H64.3478C60.7942 46.6801 57.913 43.7966 57.913 40.2401C57.913 36.6837 60.7942 33.8002 64.3478 33.8002H70.7826V20.9202C70.7826 19.1428 69.3412 17.7002 67.5652 17.7002ZM70.7826 43.4601V37.0201H64.3478C62.5718 37.0201 61.1304 38.4627 61.1304 40.2401C61.1304 42.0176 62.5718 43.4601 64.3478 43.4601H70.7826ZM64.3478 38.6301H67.5652V41.8501H64.3478V38.6301Z" fill="#2D314D"/>
</svg>
